<svg xmlns="http://www.w3.org/2000/svg" width="104" height="32" fill="none"><path fill="#fff" fill-rule="evenodd" d="M19.712 7.868c4.494 0 8.138 3.64 8.138 8.132 0 4.491-3.644 8.132-8.138 8.132s-8.138-3.64-8.138-8.132c0-4.492 3.644-8.132 8.138-8.132Zm84.012 16.264h-2.202l-7.838-12.424-.069.023v12.401h-2.201V7.864h2.201l7.839 12.413.068-.023V7.864h2.202v16.268Zm-23.377-9.598c0-1.488-.405-2.712-1.21-3.665-.805-.954-1.885-1.43-3.24-1.43-1.282 0-2.305.476-3.068 1.43-.767.953-1.148 2.177-1.148 3.665v2.917c0 1.506.381 2.734 1.148 3.688.763.953 1.786 1.43 3.068 1.43 1.363 0 2.447-.477 3.248-1.426.801-.95 1.202-2.182 1.202-3.692v-2.917Zm-19.954 9.598h-2.214V7.864h2.214v16.268Zm22.156-6.68c0 1.986-.618 3.637-1.851 4.95-1.233 1.311-2.835 1.963-4.8 1.967-1.901-.004-3.447-.656-4.637-1.968-1.187-1.312-1.782-2.963-1.782-4.95v-2.894c0-1.98.595-3.631 1.782-4.95 1.19-1.316 2.736-1.976 4.636-1.976 1.966 0 3.568.656 4.801 1.972 1.233 1.315 1.85 2.967 1.85 4.954v2.894ZM39.9 15.35h3.14c1.249 0 2.145-.237 2.691-.71.55-.472.82-1.193.82-2.162 0-.915-.263-1.624-.797-2.128-.534-.503-1.362-.755-2.488-.755H39.9v5.755Zm0 1.731v7.051h-2.202V7.875h5.568c1.782 0 3.14.397 4.08 1.186.938.79 1.411 1.938 1.411 3.44 0 .835-.221 1.56-.656 2.178-.435.621-1.072 1.11-1.904 1.475.893.29 1.534.763 1.927 1.415s.588 1.457.588 2.418v1.53c0 .506.053.96.167 1.365.111.4.306.728.58.983v.267h-2.27c-.29-.251-.477-.625-.557-1.117-.084-.492-.122-1-.122-1.518V20.01c0-.88-.26-1.587-.771-2.124-.515-.534-1.206-.805-2.069-.805H39.9ZM6.144 25.686a2.68 2.68 0 0 1 2.328 4.01 15.575 15.575 0 0 0 7.539 1.932c4.318 0 8.228-1.75 11.058-4.577a15.648 15.648 0 0 0 3.484-5.292 12.06 12.06 0 0 1-2.054 2.739 11.992 11.992 0 0 1-8.503 3.52c-3.321 0-6.328-1.346-8.504-3.52A11.976 11.976 0 0 1 7.97 16c0-3.319 1.346-6.323 3.522-8.498.5-.5 1.045-.956 1.627-1.362a1.413 1.413 0 1 1 2.493-1.334 12.001 12.001 0 0 1 4.384-.824c3.32 0 6.327 1.346 8.503 3.52.808.808 1.501 1.73 2.054 2.739-.794-2-1.988-3.796-3.485-5.292A15.595 15.595 0 0 0 16.01.372c-4.318 0-8.228 1.75-11.057 4.577A15.574 15.574 0 0 0 .373 16c0 3.99 1.495 7.63 3.958 10.392a2.672 2.672 0 0 1 1.813-.706Zm2.12 4.32a2.68 2.68 0 1 1-4.19-3.343A15.934 15.934 0 0 1 0 16c0-4.418 1.792-8.418 4.69-11.314A15.966 15.966 0 0 1 16.01 0c4.421 0 8.424 1.79 11.322 4.686a15.945 15.945 0 0 1 4.688 11.472 15.944 15.944 0 0 1-4.688 11.156A15.966 15.966 0 0 1 16.01 32c-2.81 0-5.45-.724-7.746-1.995Zm7.476-24.85a1.413 1.413 0 0 1-2.402 1.285c-.566.394-1.096.838-1.583 1.324A11.606 11.606 0 0 0 8.342 16c0 3.216 1.305 6.127 3.413 8.235a11.62 11.62 0 0 0 8.24 3.41 11.62 11.62 0 0 0 8.24-3.41A11.605 11.605 0 0 0 31.65 16c0-3.216-1.305-6.127-3.413-8.235a11.62 11.62 0 0 0-8.24-3.41 11.63 11.63 0 0 0-4.256.8Zm3.972 4.822A6.024 6.024 0 0 1 25.738 16a6.024 6.024 0 0 1-6.026 6.022A6.024 6.024 0 0 1 13.686 16a6.024 6.024 0 0 1 6.026-6.022Z" clip-rule="evenodd"/></svg>